<?xml version="1.0" encoding="UTF-8" standalone="no"?>
<svg
   xmlns:dc="http://purl.org/dc/elements/1.1/"
   xmlns:cc="http://creativecommons.org/ns#"
   xmlns:rdf="http://www.w3.org/1999/02/22-rdf-syntax-ns#"
   xmlns:svg="http://www.w3.org/2000/svg"
   xmlns="http://www.w3.org/2000/svg"
   xmlns:sodipodi="http://sodipodi.sourceforge.net/DTD/sodipodi-0.dtd"
   xmlns:inkscape="http://www.inkscape.org/namespaces/inkscape"
   width="68"
   height="68"
   version="1.1"
   viewBox="0 0 68 68"
   id="svg4"
   sodipodi:docname="ExitUp.svg"
   inkscape:version="0.92.4 (5da689c313, 2019-01-14)">
  <metadata
     id="metadata10">
    <rdf:RDF>
      <cc:Work
         rdf:about="">
        <dc:format>image/svg+xml</dc:format>
        <dc:type
           rdf:resource="http://purl.org/dc/dcmitype/StillImage" />
        <dc:title></dc:title>
      </cc:Work>
    </rdf:RDF>
  </metadata>
  <defs
     id="defs8" />
  <sodipodi:namedview
     pagecolor="#ffffff"
     bordercolor="#666666"
     borderopacity="1"
     objecttolerance="10"
     gridtolerance="10"
     guidetolerance="10"
     inkscape:pageopacity="0"
     inkscape:pageshadow="2"
     inkscape:window-width="2560"
     inkscape:window-height="1330"
     id="namedview6"
     showgrid="false"
     inkscape:zoom="45.254834"
     inkscape:cx="40.710019"
     inkscape:cy="44.883943"
     inkscape:window-x="-12"
     inkscape:window-y="-12"
     inkscape:window-maximized="1"
     inkscape:current-layer="svg4" />
  <path
     style="fill:#000000;stroke-width:1"
     d="M 34.080715,32.724998 34.05,31.449998 39.475,20.573365 44.9,9.6967332 V 7.8974541 6.098175 l -1.010491,0.5070879 c -0.555769,0.2788983 -1.026948,0.4906298 -1.047064,0.4705143 -0.04408,-0.044078 2.974921,-4.9224726 3.083872,-4.9832242 0.07355,-0.04101 3.096768,4.8176941 3.035701,4.8787609 -0.01651,0.016514 -0.487224,-0.1699298 -1.046022,-0.4143194 L 46.9,6.1126498 l 0.0013,2.2186743 0.0013,2.2186739 -5.766239,11.725 -5.766238,11.725 h -0.629327 -0.629327 z"
     id="path841"
     inkscape:connector-curvature="0" />
  <path
     style="fill:#ffbf00;fill-opacity:1;stroke-width:1"
     d="M 34.115729,32.735866 34.063879,31.522848 39.50895,20.583622 44.95402,9.6443961 V 7.8554127 c 0,-0.983941 -0.01588,-1.7889836 -0.03528,-1.7889836 -0.01941,0 -0.439402,0.2012964 -0.933324,0.4473253 -0.493923,0.2460289 -0.920372,0.4249948 -0.947664,0.3977021 -0.07944,-0.079437 2.766307,-4.698841 2.89468,-4.698841 0.127044,0 2.958255,4.5513315 2.879933,4.6296538 -0.02304,0.023043 -0.454888,-0.1370157 -0.959653,-0.3556869 l -0.917756,-0.397584 -0.0206,2.2037578 -0.0206,2.2037578 -5.759333,11.705508 -5.759333,11.705509 -0.603758,0.02068 -0.603758,0.02068 z"
     id="path843"
     inkscape:connector-curvature="0" />
</svg>
